<?xml version="1.0" encoding="UTF-8" standalone="no"?>
<!-- Created with Inkscape (http://www.inkscape.org/) -->

<svg
   xmlns:dc="http://purl.org/dc/elements/1.1/"
   xmlns:cc="http://creativecommons.org/ns#"
   xmlns:rdf="http://www.w3.org/1999/02/22-rdf-syntax-ns#"
   xmlns:svg="http://www.w3.org/2000/svg"
   xmlns="http://www.w3.org/2000/svg"
   xmlns:sodipodi="http://sodipodi.sourceforge.net/DTD/sodipodi-0.dtd"
   xmlns:inkscape="http://www.inkscape.org/namespaces/inkscape"
   width="24"
   height="24"
   viewBox="0 0 24 24"
   id="svg4265"
   version="1.1"
   inkscape:version="0.91 r13725"
   sodipodi:docname="englisch_book.svg">
  <defs
     id="defs4267" />
  <sodipodi:namedview
     id="base"
     pagecolor="#ffffff"
     bordercolor="#666666"
     borderopacity="1.0"
     inkscape:pageopacity="0.0"
     inkscape:pageshadow="2"
     inkscape:zoom="32"
     inkscape:cx="4.5294963"
     inkscape:cy="10.515795"
     inkscape:document-units="px"
     inkscape:current-layer="layer1"
     showgrid="false"
     units="px"
     showguides="true"
     inkscape:guide-bbox="true"
     inkscape:window-width="1920"
     inkscape:window-height="1017"
     inkscape:window-x="-8"
     inkscape:window-y="32"
     inkscape:window-maximized="1">
    <sodipodi:guide
       position="4.0406102,20.32932"
       orientation="1,0"
       id="guide5361" />
    <sodipodi:guide
       position="20.013647,16.699084"
       orientation="1,0"
       id="guide5363" />
  </sodipodi:namedview>
  <metadata
     id="metadata4270">
    <rdf:RDF>
      <cc:Work
         rdf:about="">
        <dc:format>image/svg+xml</dc:format>
        <dc:type
           rdf:resource="http://purl.org/dc/dcmitype/StillImage" />
        <dc:title></dc:title>
      </cc:Work>
    </rdf:RDF>
  </metadata>
  <g
     inkscape:label="Ebene 1"
     inkscape:groupmode="layer"
     id="layer1"
     transform="translate(0,-1028.3622)">
    <g
       style="fill:#000000"
       id="g5377"
       transform="translate(-0.03600575,1028.3666)">
      <path
         id="path5367"
         d="M 0,0 24,0 24,24 0,24 Z"
         inkscape:connector-curvature="0"
         style="fill:none" />
      <path
         id="path5369"
         d="M 18,2 6,2 C 4.9,2 4,2.9 4,4 l 0,16 c 0,1.1 0.9,2 2,2 l 12,0 c 1.1,0 2,-0.9 2,-2 L 20,4 C 20,2.9 19.1,2 18,2 Z M 6,4 11,4 11,12 8.5,10.5 6,12 6,4 Z"
         inkscape:connector-curvature="0" />
    </g>
    <rect
       style="fill:#a9a9a9;fill-opacity:1;fill-rule:nonzero;stroke:none;stroke-width:1;stroke-linecap:square;stroke-linejoin:round;stroke-miterlimit:4;stroke-dasharray:none;stroke-opacity:1"
       id="rect5381-8"
       width="5.4794178"
       height="1.1274933"
       x="13.629981"
       y="1044.7946" />
    <g
       id="g5989"
       transform="matrix(0.10003919,0,0,0.10003919,13.31145,1043.8093)">
      <path
         id="path5973"
         d="M 0,0 0,30 60,30 60,0 Z"
         inkscape:connector-curvature="0"
         style="fill:#2d2d2d;fill-opacity:1" />
      <path
         id="path5975"
         d="M 0,0 60,30 M 60,0 0,30"
         inkscape:connector-curvature="0"
         style="stroke:#ffffff;stroke-width:6" />
      <path
         id="path5977"
         clip-path="url(#t)"
         d="M 0,0 60,30 M 60,0 0,30"
         inkscape:connector-curvature="0"
         style="stroke:#888888;stroke-width:4;stroke-opacity:1" />
      <path
         id="path5979"
         d="m 30,0 0,30 M 0,15 60,15"
         inkscape:connector-curvature="0"
         style="stroke:#ffffff;stroke-width:10" />
      <path
         id="path5981"
         d="m 30,0 0,30 M 0,15 60,15"
         inkscape:connector-curvature="0"
         style="stroke:#888888;stroke-width:6;stroke-opacity:1" />
    </g>
    <rect
       style="fill:#000000;fill-opacity:1;fill-rule:nonzero;stroke:none;stroke-width:1;stroke-linecap:square;stroke-linejoin:round;stroke-miterlimit:4;stroke-dasharray:none;stroke-opacity:1"
       id="rect5996"
       width="6.1835938"
       height="0.64592952"
       x="13.1875"
       y="1043.1642" />
    <rect
       style="fill:#000000;fill-opacity:1;fill-rule:nonzero;stroke:none;stroke-width:1;stroke-linecap:square;stroke-linejoin:round;stroke-miterlimit:4;stroke-dasharray:none;stroke-opacity:1"
       id="rect5996-9"
       width="6.1835938"
       height="0.64592952"
       x="13.16258"
       y="1046.8079" />
    <rect
       style="fill:#000000;fill-opacity:1;fill-rule:nonzero;stroke:none;stroke-width:1;stroke-linecap:square;stroke-linejoin:round;stroke-miterlimit:4;stroke-dasharray:none;stroke-opacity:1"
       id="rect5996-9-7"
       width="6.1835938"
       height="0.64592952"
       x="1042.1777"
       y="-13.311687"
       transform="matrix(0,1,-1,0,0,0)" />
    <rect
       style="fill:#000000;fill-opacity:1;fill-rule:nonzero;stroke:none;stroke-width:1;stroke-linecap:square;stroke-linejoin:round;stroke-miterlimit:4;stroke-dasharray:none;stroke-opacity:1"
       id="rect5996-9-7-0"
       width="6.1835938"
       height="0.64592952"
       x="1042.0525"
       y="-19.962698"
       transform="matrix(0,1,-1,0,0,0)" />
  </g>
</svg>
