<?xml version="1.0" encoding="UTF-8" standalone="no"?>
<svg
   xmlns:dc="http://purl.org/dc/elements/1.1/"
   xmlns:cc="http://creativecommons.org/ns#"
   xmlns:rdf="http://www.w3.org/1999/02/22-rdf-syntax-ns#"
   xmlns:svg="http://www.w3.org/2000/svg"
   xmlns="http://www.w3.org/2000/svg"
   xmlns:sodipodi="http://sodipodi.sourceforge.net/DTD/sodipodi-0.dtd"
   xmlns:inkscape="http://www.inkscape.org/namespaces/inkscape"
   fill="#000000"
   height="24"
   viewBox="0 0 24 24"
   width="24"
   id="svg2"
   version="1.1"
   inkscape:version="0.91 r13725"
   sodipodi:docname="geschichte_hourglass.svg">
  <metadata
     id="metadata12">
    <rdf:RDF>
      <cc:Work
         rdf:about="">
        <dc:format>image/svg+xml</dc:format>
        <dc:type
           rdf:resource="http://purl.org/dc/dcmitype/StillImage" />
      </cc:Work>
    </rdf:RDF>
  </metadata>
  <defs
     id="defs10" />
  <sodipodi:namedview
     pagecolor="#ffffff"
     bordercolor="#666666"
     borderopacity="1"
     objecttolerance="10"
     gridtolerance="10"
     guidetolerance="10"
     inkscape:pageopacity="0"
     inkscape:pageshadow="2"
     inkscape:window-width="1920"
     inkscape:window-height="1017"
     id="namedview8"
     showgrid="false"
     inkscape:zoom="27.812867"
     inkscape:cx="12.42439"
     inkscape:cy="10.558025"
     inkscape:window-x="-8"
     inkscape:window-y="32"
     inkscape:window-maximized="1"
     inkscape:current-layer="svg2" />
  <path
     d="M6 2v6h.01L6 8.01 10 12l-4 4 .01.01H6V22h12v-5.99h-.01L18 16l-4-4 4-3.99-.01-.01H18V2H6zm10 14.5V20H8v-3.5l4-4 4 4zm-4-5l-4-4V4h8v3.5l-4 4z"
     id="path4" />
  <path
     d="M0 0h24v24H0V0z"
     fill="none"
     id="path6" />
  <path
     sodipodi:type="star"
     style="fill:#000000;fill-opacity:1;fill-rule:nonzero;stroke:none;stroke-width:0.5;stroke-linecap:round;stroke-linejoin:round;stroke-miterlimit:4;stroke-dasharray:none;stroke-opacity:1"
     id="path4140"
     sodipodi:sides="3"
     sodipodi:cx="11.746766"
     sodipodi:cy="18.737288"
     sodipodi:r1="2.5943418"
     sodipodi:r2="1.2971709"
     sodipodi:arg1="0.52359878"
     sodipodi:arg2="1.5707963"
     inkscape:flatsided="false"
     inkscape:rounded="0"
     inkscape:randomized="0"
     d="m 13.993532,20.034458 -2.246766,0 -2.2467658,0 1.1233828,-1.945756 1.123383,-1.945756 1.123383,1.945756 z"
     inkscape:transform-center-y="-0.41666352"
     transform="matrix(1.3352526,0,0,0.64242371,-3.6849,7.2293889)" />
  <path
     sodipodi:type="star"
     style="fill:#000000;fill-opacity:1;fill-rule:nonzero;stroke:none;stroke-width:0.5;stroke-linecap:round;stroke-linejoin:round;stroke-miterlimit:4;stroke-dasharray:none;stroke-opacity:1"
     id="path4140-9"
     sodipodi:sides="3"
     sodipodi:cx="11.746766"
     sodipodi:cy="18.737288"
     sodipodi:r1="2.5943418"
     sodipodi:r2="1.2971709"
     sodipodi:arg1="0.52359878"
     sodipodi:arg2="1.5707963"
     inkscape:flatsided="false"
     inkscape:rounded="0"
     inkscape:randomized="0"
     d="m 13.993532,20.034458 -2.246766,0 -2.2467658,0 1.1233828,-1.945756 1.123383,-1.945756 1.123383,1.945756 z"
     inkscape:transform-center-y="0.57546193"
     transform="matrix(-1.5992991,0,0,-0.88726332,30.777445,25.988584)" />
</svg>
