<?xml version="1.0" encoding="UTF-8" standalone="no"?>
<!-- Created with Inkscape (http://www.inkscape.org/) -->

<svg
   xmlns:dc="http://purl.org/dc/elements/1.1/"
   xmlns:cc="http://creativecommons.org/ns#"
   xmlns:rdf="http://www.w3.org/1999/02/22-rdf-syntax-ns#"
   xmlns:svg="http://www.w3.org/2000/svg"
   xmlns="http://www.w3.org/2000/svg"
   xmlns:sodipodi="http://sodipodi.sourceforge.net/DTD/sodipodi-0.dtd"
   xmlns:inkscape="http://www.inkscape.org/namespaces/inkscape"
   width="24"
   height="24"
   viewBox="0 0 6.3499999 6.3500002"
   version="1.1"
   id="svg821"
   inkscape:version="0.92.0 r15299"
   sodipodi:docname="geschichte_buste.svg">
  <defs
     id="defs815" />
  <sodipodi:namedview
     id="base"
     pagecolor="#79ff6c"
     bordercolor="#666666"
     borderopacity="1.0"
     inkscape:pageopacity="0"
     inkscape:pageshadow="2"
     inkscape:zoom="31.678384"
     inkscape:cx="-2.2047759"
     inkscape:cy="11.199891"
     inkscape:document-units="px"
     inkscape:current-layer="layer1"
     showgrid="false"
     units="px"
     showguides="true"
     inkscape:guide-bbox="true"
     inkscape:window-width="1920"
     inkscape:window-height="1017"
     inkscape:window-x="1912"
     inkscape:window-y="32"
     inkscape:window-maximized="1">
    <sodipodi:guide
       position="2.4388344,5.2869255"
       orientation="0,1"
       id="guide1366"
       inkscape:locked="false" />
    <sodipodi:guide
       position="1.9961693,1.060726"
       orientation="0,1"
       id="guide1368"
       inkscape:locked="false" />
    <sodipodi:guide
       position="1.0690781,4.5936952"
       orientation="1,0"
       id="guide1370"
       inkscape:locked="false" />
    <sodipodi:guide
       position="5.2952774,4.2930169"
       orientation="1,0"
       id="guide1372"
       inkscape:locked="false" />
  </sodipodi:namedview>
  <metadata
     id="metadata818">
    <rdf:RDF>
      <cc:Work
         rdf:about="">
        <dc:format>image/svg+xml</dc:format>
        <dc:type
           rdf:resource="http://purl.org/dc/dcmitype/StillImage" />
        <dc:title></dc:title>
      </cc:Work>
    </rdf:RDF>
  </metadata>
  <g
     inkscape:label="Ebene 1"
     inkscape:groupmode="layer"
     id="layer1"
     transform="translate(0,-290.64998)">
    <path
       style="fill:#000000;fill-opacity:1;stroke:#000000;stroke-width:0.02645833;stroke-linecap:butt;stroke-linejoin:miter;stroke-miterlimit:4;stroke-dasharray:none;stroke-opacity:1"
       d="m 2.5474128,295.58846 c -0.097628,-0.15537 -0.4854692,-0.60166 -0.6527364,-0.69391 -0.1953045,-0.10772 -0.2607326,-0.0355 -0.4831591,-0.35429 0.045991,-0.14347 0.1416431,-0.37576 0.2672695,-0.46354 0.1943209,-0.13578 0.706665,-0.203 0.9688521,-0.25892 l 0.050113,-0.26727 c -0.010709,-0.168 -0.04267,-0.21911 -0.075169,-0.26727 -0.1829747,-0.11812 -0.2512411,-0.27447 -0.2338608,-0.45937 l 0.075169,-0.0501 c -0.036733,-0.0895 -0.049567,-0.16107 -0.041761,-0.21716 0.080394,-0.27429 0.2455739,-0.47636 0.4510173,-0.58465 0.1893098,-0.0736 0.2951381,-0.0398 0.4092565,-0.0167 0.1752465,0.0755 0.4857443,0.30997 0.5011304,0.49278 0.00736,0.0875 0.00286,0.1932 -1.3e-6,0.32155 l 0.091874,0.0418 c 0.051272,0.15676 -0.039109,0.26629 -0.1169304,0.38002 -0.1061151,0.0675 -0.1264552,0.19224 -0.1336347,0.32573 0.049303,0.0191 0.061565,0.14939 0.066817,0.30068 l 0.8268653,0.11693 c 0.4689405,0.14653 0.4522659,0.31763 0.4844251,0.44685 -0.067218,0.13793 -0.097319,0.26427 -0.3340868,0.45519 -0.2131339,0.12474 -0.4023516,0.47636 -0.6431172,0.74334 z"
       id="path1385"
       inkscape:connector-curvature="0"
       sodipodi:nodetypes="cscsccccccccscccccccccc" />
  </g>
</svg>
