<?xml version="1.0" encoding="UTF-8" standalone="no"?>
<!-- Created with Inkscape (http://www.inkscape.org/) -->

<svg
   xmlns:dc="http://purl.org/dc/elements/1.1/"
   xmlns:cc="http://creativecommons.org/ns#"
   xmlns:rdf="http://www.w3.org/1999/02/22-rdf-syntax-ns#"
   xmlns:svg="http://www.w3.org/2000/svg"
   xmlns="http://www.w3.org/2000/svg"
   xmlns:sodipodi="http://sodipodi.sourceforge.net/DTD/sodipodi-0.dtd"
   xmlns:inkscape="http://www.inkscape.org/namespaces/inkscape"
   width="24"
   height="24"
   viewBox="0 0 24 24"
   id="svg7171"
   version="1.1"
   inkscape:version="0.91 r13725"
   sodipodi:docname="physik_lightbulb.svg">
  <defs
     id="defs7173">
    <path
       id="a"
       d="M0 0h24v24H0V0z" />
  </defs>
  <sodipodi:namedview
     id="base"
     pagecolor="#ffffff"
     bordercolor="#666666"
     borderopacity="1.0"
     inkscape:pageopacity="0.0"
     inkscape:pageshadow="2"
     inkscape:zoom="22.627417"
     inkscape:cx="-5.7631664"
     inkscape:cy="8.182721"
     inkscape:document-units="px"
     inkscape:current-layer="layer1"
     showgrid="false"
     units="px"
     showguides="true"
     inkscape:guide-bbox="true"
     inkscape:window-width="1920"
     inkscape:window-height="1017"
     inkscape:window-x="-8"
     inkscape:window-y="32"
     inkscape:window-maximized="1">
    <sodipodi:guide
       position="3.9774757,19.477004"
       orientation="1,0"
       id="guide7719" />
    <sodipodi:guide
       position="19.98208,17.709237"
       orientation="1,0"
       id="guide7721" />
    <sodipodi:guide
       position="13.763328,19.950513"
       orientation="0,1"
       id="guide7723" />
    <sodipodi:guide
       position="14.047434,4.0090429"
       orientation="0,1"
       id="guide7725" />
    <sodipodi:guide
       position="12.053571,22.678572"
       orientation="1,0"
       id="guide7745" />
    <sodipodi:guide
       position="10.038391,22.160222"
       orientation="1,0"
       id="guide7747" />
    <sodipodi:guide
       position="14.079001,21.970818"
       orientation="1,0"
       id="guide7749" />
    <sodipodi:guide
       position="6.0609153,16.541248"
       orientation="1,0"
       id="guide7753" />
    <sodipodi:guide
       position="17.993342,16.888488"
       orientation="1,0"
       id="guide7755" />
    <sodipodi:guide
       position="7.7790179,5.6138393"
       orientation="0,1"
       id="guide7761" />
  </sodipodi:namedview>
  <metadata
     id="metadata7176">
    <rdf:RDF>
      <cc:Work
         rdf:about="">
        <dc:format>image/svg+xml</dc:format>
        <dc:type
           rdf:resource="http://purl.org/dc/dcmitype/StillImage" />
        <dc:title></dc:title>
      </cc:Work>
    </rdf:RDF>
  </metadata>
  <g
     inkscape:label="Ebene 1"
     inkscape:groupmode="layer"
     id="layer1"
     transform="translate(0,-1028.3622)">
    <g
       style="fill:#000000"
       id="g7742"
       transform="matrix(0.57142857,0,0,0.57142857,5.1428571,1031.2908)">
      <path
         id="path7735"
         d="m 9,21 c 0,0.55 0.45,1 1,1 l 4,0 c 0.55,0 1,-0.45 1,-1 l 0,-1 -6,0 0,1 z M 12,2 C 8.14,2 5,5.14 5,9 c 0,2.38 1.19,4.47 3,5.74 L 8,17 c 0,0.55 0.45,1 1,1 l 6,0 c 0.55,0 1,-0.45 1,-1 l 0,-2.26 C 17.81,13.47 19,11.38 19,9 19,5.14 15.86,2 12,2 Z M 14.85,13.1 14,13.7 14,16 10,16 10,13.7 9.15,13.1 C 7.8,12.16 7,10.63 7,9 7,6.24 9.24,4 12,4 c 2.76,0 5,2.24 5,5 0,1.63 -0.8,3.16 -2.15,4.1 z"
         clip-path="url(#b)"
         inkscape:connector-curvature="0" />
    </g>
    <path
       style="fill:none;fill-rule:evenodd;stroke:#000000;stroke-width:1px;stroke-linecap:butt;stroke-linejoin:miter;stroke-opacity:1"
       d="m 6.0609153,1048.3532 0,-3.491 3.9774757,0"
       id="path7757"
       inkscape:connector-curvature="0"
       sodipodi:nodetypes="ccc" />
    <path
       style="fill:none;fill-rule:evenodd;stroke:#000000;stroke-width:1px;stroke-linecap:butt;stroke-linejoin:miter;stroke-opacity:1"
       d="m 17.993342,1048.3532 0,-3.491 -3.914341,0"
       id="path7759"
       inkscape:connector-curvature="0"
       sodipodi:nodetypes="ccc" />
    <path
       style="fill:none;fill-rule:evenodd;stroke:#000000;stroke-width:0.5;stroke-linecap:butt;stroke-linejoin:miter;stroke-opacity:1;stroke-miterlimit:4;stroke-dasharray:none"
       d="m 7.2321429,1046.7484 1.9754464,0"
       id="path7763"
       inkscape:connector-curvature="0" />
    <path
       style="fill:none;fill-rule:evenodd;stroke:#000000;stroke-width:0.5;stroke-linecap:butt;stroke-linejoin:miter;stroke-miterlimit:4;stroke-dasharray:none;stroke-opacity:1"
       d="m 14.851153,1046.7432 1.975446,0"
       id="path7763-4"
       inkscape:connector-curvature="0" />
    <path
       style="fill:none;fill-rule:evenodd;stroke:#000000;stroke-width:0.5;stroke-linecap:butt;stroke-linejoin:miter;stroke-miterlimit:4;stroke-dasharray:none;stroke-opacity:1"
       d="m 15.807308,1045.7634 0,1.9754"
       id="path7763-9"
       inkscape:connector-curvature="0" />
  </g>
</svg>
