<?xml version="1.0" encoding="UTF-8" standalone="no"?>
<!-- Created with Inkscape (http://www.inkscape.org/) -->

<svg
   xmlns:dc="http://purl.org/dc/elements/1.1/"
   xmlns:cc="http://creativecommons.org/ns#"
   xmlns:rdf="http://www.w3.org/1999/02/22-rdf-syntax-ns#"
   xmlns:svg="http://www.w3.org/2000/svg"
   xmlns="http://www.w3.org/2000/svg"
   xmlns:sodipodi="http://sodipodi.sourceforge.net/DTD/sodipodi-0.dtd"
   xmlns:inkscape="http://www.inkscape.org/namespaces/inkscape"
   width="24"
   height="24"
   viewBox="0 0 24 24"
   id="svg4265"
   version="1.1"
   inkscape:version="0.91 r13725"
   sodipodi:docname="spanisch_book.svg">
  <defs
     id="defs4267" />
  <sodipodi:namedview
     id="base"
     pagecolor="#ffffff"
     bordercolor="#666666"
     borderopacity="1.0"
     inkscape:pageopacity="0.0"
     inkscape:pageshadow="2"
     inkscape:zoom="32"
     inkscape:cx="7.4316915"
     inkscape:cy="12.009016"
     inkscape:document-units="px"
     inkscape:current-layer="layer1"
     showgrid="false"
     units="px"
     showguides="true"
     inkscape:guide-bbox="true"
     inkscape:window-width="1920"
     inkscape:window-height="1017"
     inkscape:window-x="-8"
     inkscape:window-y="32"
     inkscape:window-maximized="1">
    <sodipodi:guide
       position="4.0406102,20.32932"
       orientation="1,0"
       id="guide5361" />
    <sodipodi:guide
       position="20.013647,16.699084"
       orientation="1,0"
       id="guide5363" />
  </sodipodi:namedview>
  <metadata
     id="metadata4270">
    <rdf:RDF>
      <cc:Work
         rdf:about="">
        <dc:format>image/svg+xml</dc:format>
        <dc:type
           rdf:resource="http://purl.org/dc/dcmitype/StillImage" />
        <dc:title></dc:title>
      </cc:Work>
    </rdf:RDF>
  </metadata>
  <g
     inkscape:label="Ebene 1"
     inkscape:groupmode="layer"
     id="layer1"
     transform="translate(0,-1028.3622)">
    <g
       style="fill:#000000"
       id="g5377"
       transform="translate(-0.03600575,1028.3666)">
      <path
         id="path5367"
         d="M 0,0 24,0 24,24 0,24 Z"
         inkscape:connector-curvature="0"
         style="fill:none" />
      <path
         id="path5369"
         d="M 18,2 6,2 C 4.9,2 4,2.9 4,4 l 0,16 c 0,1.1 0.9,2 2,2 l 12,0 c 1.1,0 2,-0.9 2,-2 L 20,4 C 20,2.9 19.1,2 18,2 Z M 6,4 11,4 11,12 8.5,10.5 6,12 6,4 Z"
         inkscape:connector-curvature="0" />
    </g>
    <g
       id="g4862"
       transform="matrix(0.04456984,0,0,0.04456984,-30.152663,1026.1397)">
      <rect
         id="rect4143"
         height="82.052696"
         width="123.07906"
         x="974.21875"
         y="396.13272"
         style="fill:#464646;fill-opacity:1" />
      <rect
         id="rect4145"
         y="416.6459"
         height="41.026348"
         width="123.07906"
         x="974.21875"
         style="fill:#c8c8c8;fill-opacity:1" />
    </g>
  </g>
</svg>
