<?xml version="1.0" encoding="UTF-8" standalone="no"?>
<!-- Created with Inkscape (http://www.inkscape.org/) -->

<svg
   xmlns:dc="http://purl.org/dc/elements/1.1/"
   xmlns:cc="http://creativecommons.org/ns#"
   xmlns:rdf="http://www.w3.org/1999/02/22-rdf-syntax-ns#"
   xmlns:svg="http://www.w3.org/2000/svg"
   xmlns="http://www.w3.org/2000/svg"
   xmlns:sodipodi="http://sodipodi.sourceforge.net/DTD/sodipodi-0.dtd"
   xmlns:inkscape="http://www.inkscape.org/namespaces/inkscape"
   width="24"
   height="24"
   viewBox="0 0 24 24"
   id="svg5404"
   version="1.1"
   inkscape:version="0.91 r13725"
   sodipodi:docname="sport_run.svg">
  <defs
     id="defs5406" />
  <sodipodi:namedview
     id="base"
     pagecolor="#ffffff"
     bordercolor="#666666"
     borderopacity="1.0"
     inkscape:pageopacity="0.0"
     inkscape:pageshadow="2"
     inkscape:zoom="22.4"
     inkscape:cx="18.720232"
     inkscape:cy="9.0064099"
     inkscape:document-units="px"
     inkscape:current-layer="layer1"
     showgrid="false"
     units="px"
     inkscape:window-width="1920"
     inkscape:window-height="1017"
     inkscape:window-x="-8"
     inkscape:window-y="32"
     inkscape:window-maximized="1" />
  <metadata
     id="metadata5409">
    <rdf:RDF>
      <cc:Work
         rdf:about="">
        <dc:format>image/svg+xml</dc:format>
        <dc:type
           rdf:resource="http://purl.org/dc/dcmitype/StillImage" />
        <dc:title></dc:title>
      </cc:Work>
    </rdf:RDF>
  </metadata>
  <g
     inkscape:label="Ebene 1"
     inkscape:groupmode="layer"
     id="layer1"
     transform="translate(0,-1028.3622)">
    <g
       style="fill:#000000"
       id="g5964"
       transform="translate(-0.00443852,1028.3666)">
      <path
         id="path5954"
         d="M 0,0 24,0 24,24 0,24 Z"
         inkscape:connector-curvature="0"
         style="fill:none" />
      <path
         id="path5956"
         d="m 13.49,5.48 c 1.1,0 2,-0.9 2,-2 0,-1.1 -0.9,-2 -2,-2 -1.1,0 -2,0.9 -2,2 0,1.1 0.9,2 2,2 z m -3.6,13.9 1,-4.4 2.1,2 0,6 2,0 0,-7.5 -2.1,-2 0.6,-3 c 1.3,1.5 3.3,2.5 5.5,2.5 l 0,-2 c -1.9,0 -3.5,-1 -4.3,-2.4 l -1,-1.6 c -0.4,-0.6 -1,-1 -1.7,-1 -0.3,0 -0.5,0.1 -0.8,0.1 l -5.2,2.2 0,4.7 2,0 0,-3.4 1.8,-0.7 -1.6,8.1 -4.9,-1 -0.4,2 7,1.4 z"
         inkscape:connector-curvature="0" />
    </g>
  </g>
</svg>
