<?xml version="1.0" encoding="UTF-8" standalone="no"?>
<!-- Created with Inkscape (http://www.inkscape.org/) -->

<svg
   xmlns:dc="http://purl.org/dc/elements/1.1/"
   xmlns:cc="http://creativecommons.org/ns#"
   xmlns:rdf="http://www.w3.org/1999/02/22-rdf-syntax-ns#"
   xmlns:svg="http://www.w3.org/2000/svg"
   xmlns="http://www.w3.org/2000/svg"
   xmlns:sodipodi="http://sodipodi.sourceforge.net/DTD/sodipodi-0.dtd"
   xmlns:inkscape="http://www.inkscape.org/namespaces/inkscape"
   width="24"
   height="24"
   viewBox="0 0 24 24"
   id="svg2"
   version="1.1"
   inkscape:version="0.91 r13725"
   sodipodi:docname="vertretungsplan-logo-alpha-orange.svg">
  <defs
     id="defs4" />
  <sodipodi:namedview
     id="base"
     pagecolor="#1de900"
     bordercolor="#666666"
     borderopacity="1.0"
     inkscape:pageopacity="0"
     inkscape:pageshadow="2"
     inkscape:zoom="22.4"
     inkscape:cx="13.078098"
     inkscape:cy="13.488435"
     inkscape:document-units="px"
     inkscape:current-layer="layer2"
     showgrid="false"
     units="px"
     inkscape:window-width="1920"
     inkscape:window-height="1017"
     inkscape:window-x="-8"
     inkscape:window-y="32"
     inkscape:window-maximized="1"
     showguides="true"
     inkscape:guide-bbox="true">
    <sodipodi:guide
       position="19.955357,18.616071"
       orientation="1,0"
       id="guide4163" />
    <sodipodi:guide
       position="4.0178572,19.732143"
       orientation="1,0"
       id="guide4165" />
    <sodipodi:guide
       position="8.125,22.946429"
       orientation="0,1"
       id="guide4167" />
    <sodipodi:guide
       position="6.6517857,1.0267857"
       orientation="0,1"
       id="guide4169" />
  </sodipodi:namedview>
  <metadata
     id="metadata7">
    <rdf:RDF>
      <cc:Work
         rdf:about="">
        <dc:format>image/svg+xml</dc:format>
        <dc:type
           rdf:resource="http://purl.org/dc/dcmitype/StillImage" />
        <dc:title></dc:title>
      </cc:Work>
    </rdf:RDF>
  </metadata>
  <g
     inkscape:label="Ebene 1"
     inkscape:groupmode="layer"
     id="layer1"
     transform="translate(0,-1028.3622)" />
  <g
     inkscape:groupmode="layer"
     id="layer2"
     inkscape:label="Ebene 2"
     transform="translate(0,-488)">
    <path
       style="fill:#ff9800;fill-opacity:1;fill-rule:evenodd;stroke:none;stroke-width:1px;stroke-linecap:butt;stroke-linejoin:miter;stroke-opacity:1"
       d="m 5.3854349,488.9735 c -0.602262,0.029 -1.319441,0.7782 -1.269087,1.2691 l 0,1.85285 0,1.65338 15.7366591,0 0,-1.65338 0,-1.85285 c -0.164069,-0.96663 -0.705625,-1.10128 -1.269085,-1.2691 l -13.1984871,0 z m 0.897678,1.66388 c 0.31151,10e-6 0.56404,0.25254 0.564049,0.56406 -9e-6,0.31151 -0.252539,0.56404 -0.564049,0.56405 -0.311512,-10e-6 -0.564039,-0.25254 -0.564049,-0.56405 10e-6,-0.31152 0.252537,-0.56405 0.564049,-0.56406 z m 10.9352531,0 c 0.311513,10e-6 0.564041,0.25254 0.56405,0.56406 -9e-6,0.31151 -0.252537,0.56404 -0.56405,0.56405 -0.311512,-10e-6 -0.564039,-0.25254 -0.564049,-0.56405 10e-6,-0.31152 0.252537,-0.56405 0.564049,-0.56406 z"
       id="path4152"
       inkscape:connector-curvature="0" />
    <path
       style="fill:#ff9800;fill-opacity:1;fill-rule:evenodd;stroke:none;stroke-width:1px;stroke-linecap:butt;stroke-linejoin:miter;stroke-opacity:1"
       d="m 4.1163479,494.40518 0,14.87369 c 0.04148,0.83111 0.323432,1.5158 1.46847,1.67519 l 12.9084821,0 c 1.348007,-0.2307 1.328231,-1.12354 1.359707,-1.67519 l 0,-14.87369 -15.7366591,0 z m 1.90581,2.90087 c 0.11567,0 0.206554,0.004 0.272654,0.0124 0.07023,0.004 0.123936,0.0145 0.161113,0.0309 0.03718,0.0166 0.06408,0.0393 0.08061,0.0682 0.02066,0.0248 0.0392,0.0578 0.05572,0.0991 l 2.299026,6.74816 0.0055,0 2.2366641,-6.73467 c 0.01239,-0.0454 0.02681,-0.0827 0.04333,-0.11155 0.0044,-0.007 0.0096,-0.0147 0.01566,-0.0214 4.9e-5,-5e-5 5.2e-5,-1.5e-4 1.02e-4,-2e-4 0.01703,-0.0193 0.04099,-0.0353 0.07199,-0.0477 0.0413,-0.0166 0.09914,-0.0268 0.173505,-0.0309 0.07436,-0.008 0.17351,-0.0124 0.297444,-0.0124 0.128065,0 0.229326,0.006 0.303688,0.0186 0.07436,0.009 0.123932,0.027 0.148721,0.0558 0.0289,0.0289 0.0392,0.0722 0.03092,0.13008 -0.0042,0.0538 -0.02268,0.12605 -0.05572,0.21693 l -2.6150101,7.44844 c -0.01254,0.0344 -0.02879,0.0642 -0.04848,0.0892 -5.1e-5,10e-5 -1.02e-4,2.1e-4 -2.03e-4,3.1e-4 -0.0062,0.007 -0.01267,0.0153 -0.01952,0.022 -3.2e-5,4e-5 -5.1e-5,6e-5 -1.02e-4,1.1e-4 -3.06e-4,2.9e-4 -6.37e-4,6.3e-4 -9.54e-4,7.3e-4 -0.02891,0.0289 -0.07023,0.0517 -0.123932,0.0682 -0.04957,0.0166 -0.115673,0.0269 -0.198295,0.031 -0.07849,0.009 -0.177639,0.0124 -0.297442,0.0124 -0.09089,0 -0.171392,-0.002 -0.241621,-0.006 -0.0661,0 -0.123936,-0.004 -0.17351,-0.0124 -0.04957,-0.009 -0.093,-0.0166 -0.13018,-0.0248 -0.03305,-0.0124 -0.06197,-0.0268 -0.08676,-0.0434 -0.02477,-0.0166 -0.04544,-0.0352 -0.06197,-0.0557 -0.01239,-0.0248 -0.02477,-0.0538 -0.03718,-0.0868 l -2.621148,-7.44867 c -0.03305,-0.091 -0.05169,-0.16313 -0.05582,-0.21683 0,-0.0437 0.01077,-0.0792 0.03202,-0.10637 0.007,-0.0101 0.01535,-0.0176 0.02477,-0.0249 0.03718,-0.0289 0.09703,-0.0475 0.179654,-0.0556 0.08262,-0.009 0.194162,-0.0124 0.334624,-0.0124 z m 7.9193901,0.0371 1.716535,0 c 0.173509,0 0.338758,0.009 0.495737,0.0248 0.161118,0.0124 0.349032,0.0434 0.563852,0.093 0.218951,0.0454 0.440015,0.13431 0.663098,0.2665 0.227212,0.12807 0.419261,0.28706 0.576244,0.47711 0.156983,0.19002 0.276788,0.41109 0.359409,0.66308 0.08676,0.24788 0.130181,0.52255 0.130181,0.82413 0,0.40071 -0.06609,0.76224 -0.198296,1.08448 -0.09915,0.24165 -0.230888,0.45662 -0.395102,0.64484 -3.03e-4,3.1e-4 -6.38e-4,6.2e-4 -9.7e-4,7.5e-4 -0.0271,0.0309 -0.05501,0.0612 -0.08388,0.0908 -0.02949,0.0303 -0.05987,0.0598 -0.09121,0.0885 -0.243735,0.22721 -0.545312,0.40283 -0.90472,0.52678 -0.355279,0.12392 -0.780783,0.18588 -1.27652,0.18588 l -0.909975,0 0,2.88659 c 0,0.0253 -0.0062,0.048 -0.01833,0.0684 -0.0038,0.006 -0.0078,0.0124 -0.01257,0.0184 -2.51e-4,3.2e-4 -6.37e-4,6.2e-4 -9.69e-4,7.4e-4 -0.0019,0.003 -0.0046,0.005 -0.0067,0.009 -0.0022,0.003 -0.0044,0.006 -0.0069,0.009 -0.01711,0.0176 -0.04133,0.0326 -0.07298,0.0453 -0.03719,0.0124 -0.09088,0.0226 -0.161118,0.031 -0.06608,0.0124 -0.150836,0.0186 -0.254112,0.0186 -0.103283,0 -0.190031,-0.006 -0.260261,-0.0186 -0.06609,-0.009 -0.119803,-0.0186 -0.161116,-0.031 -0.0413,-0.0166 -0.07023,-0.0372 -0.08676,-0.0621 -0.01652,-0.0248 -0.0248,-0.0538 -0.0248,-0.0868 l 0,-7.39886 c 0,-0.12463 0.0248,-0.2222 0.07417,-0.29279 0.0081,-0.0114 0.01666,-0.0223 0.02598,-0.0323 0.0097,-0.0107 0.01996,-0.0202 0.03105,-0.0292 0.08676,-0.0701 0.183784,-0.10529 0.291195,-0.10529 z m 0.644459,0.88102 0,3.21496 0.960537,0 c 0.322231,0 0.588637,-0.0413 0.799328,-0.12394 0.214815,-0.0827 0.394571,-0.19618 0.539161,-0.34077 0.01805,-0.0186 0.0355,-0.0376 0.05245,-0.057 3.3e-5,-3e-5 5e-5,-5e-5 1.02e-4,-10e-5 0.01666,-0.019 0.03269,-0.0386 0.04828,-0.0583 0.09527,-0.12163 0.170779,-0.25836 0.22655,-0.41017 0.07436,-0.20657 0.111543,-0.42965 0.111543,-0.66926 0,-0.32635 -0.06197,-0.59901 -0.185902,-0.81796 -0.119802,-0.21895 -0.27054,-0.38208 -0.452312,-0.48949 -0.177636,-0.10742 -0.363538,-0.17562 -0.557702,-0.20453 -0.190032,-0.0289 -0.375935,-0.0435 -0.557704,-0.0435 l -0.984334,0 z"
       id="path4188"
       inkscape:connector-curvature="0" />
  </g>
  <g
     inkscape:groupmode="layer"
     id="layer3"
     inkscape:label="Ebene 3"
     transform="translate(0,-488)" />
</svg>
